<svg width="1346" height="298" viewBox="0 0 1346 298" fill="none" xmlns="http://www.w3.org/2000/svg">
<path d="M0.485352 286.759L43.5353 269.52V32.745L0.485352 15.5058V11.22H78.0138L140.47 225.218L207.597 11.1719H288.978V15.4576L241.594 32.6969V269.568L288.978 286.807V291.093H161.947V286.807L204.997 269.568L205.863 53.4032L128.383 297.546L53.4551 52.5364V269.568L95.6383 286.807V291.093H0.485352V286.807V286.759Z" fill="white"/>
<path d="M284.114 286.76L337.084 269.52V32.7457L284.114 15.5064V11.2207H422.317V15.5064L373.681 32.7457V269.569L422.317 286.808V291.094H284.114V286.808V286.76Z" fill="white"/>
<path d="M417.452 286.76L457.517 269.52V30.5787L417.452 15.5064V11.2207H496.666L612.477 211.446V32.7457L568.127 15.5064V11.2207H667.18V15.5064L622.397 32.7457V297.546L467.388 31.8789V269.569L512.172 286.808V291.094H417.452V286.808V286.76Z" fill="white"/>
<path d="M699.831 32.7457L663.667 15.5064V11.2207H779.478V15.5064L736.428 32.7457V207.112C736.428 259.649 766.139 285.026 796.717 285.026C827.295 285.026 860.425 258.349 860.425 206.679V32.7457L816.075 15.5064V11.2207H912.962V15.5064L871.645 32.7457V204.079C871.645 266.968 829.896 297.931 788.098 297.931C744.181 297.931 699.831 265.187 699.831 201.478V32.7457Z" fill="white"/>
<path d="M1109.29 100.305H1105.43L1067.54 21.9584H1020.59V269.568L1075.29 286.807V291.093H929.335V286.807L984.038 269.568V21.9584H936.221L899.19 100.305H894.904L909.977 11.1719H1094.26L1109.34 100.305H1109.29Z" fill="white"/>
<path d="M1333.35 286.759V291.045H1211.9V286.759L1254.95 269.52L1222.64 175.234H1149.88L1119.3 269.52L1159.37 286.759V291.045H1066.38V286.759L1107.26 269.52L1194.71 0L1293.33 269.568L1333.4 286.807L1333.35 286.759ZM1218.79 164.447L1185.23 66.6937L1153.35 164.447H1218.79Z" fill="white"/>
<path d="M1345.49 70.7237L1298.59 108.874V106.094L1337.36 52.6549L1315.6 11.7246H1345.49V70.7237Z" fill="white"/>
</svg>
